<?xml version="1.0" encoding="UTF-8" standalone="no"?><!DOCTYPE svg PUBLIC "-//W3C//DTD SVG 1.0//EN" "http://www.w3.org/TR/2001/REC-SVG-20010904/DTD/svg10.dtd" [ <!ATTLIST svg xmlns:xlink CDATA #FIXED "http://www.w3.org/1999/xlink">]><svg width="702pt" height="702pt" viewBox="0.00 0.00 702.00 702.00" xmlns="http://www.w3.org/2000/svg" xmlns:xlink="http://www.w3.org/1999/xlink"><g transform="translate(4 698)"><g style="fill:none;stroke:black;"><path d="M97,-578C99,-580 101,-582 102,-584"/><path d="M9,-391C9,-393 10,-396 10,-399"/><path d="M89,-124C88,-126 86,-129 85,-131"/><path d="M86,-562C106,-578 192,-643 213,-659"/><path d="M85,-563C86,-565 88,-568 89,-570"/><path d="M80,-140C74,-180 38,-432 33,-472"/><path d="M8,-315C8,-317 7,-320 7,-322"/><path d="M77,-139C76,-141 74,-144 73,-146"/><path d="M73,-548C74,-550 76,-553 77,-555"/><path d="M72,-155C102,-206 353,-632 382,-681"/><path d="M7,-372C7,-374 8,-377 8,-379"/><path d="M7,-334C7,-336 6,-339 6,-341"/><path d="M687,-360C687,-358 688,-355 688,-353"/><path d="M687,-334C687,-336 688,-339 688,-341"/><path d="M687,-322C687,-320 686,-317 686,-315"/><path d="M686,-379C686,-377 687,-374 687,-372"/><path d="M685,-303C685,-301 684,-298 684,-295"/><path d="M684,-398C684,-396 685,-393 685,-390"/><path d="M682,-326C629,-303 193,-107 140,-83"/><path d="M682,-284C682,-282 681,-279 680,-276"/><path d="M681,-306C638,-277 301,-52 258,-23"/><path d="M681,-295C663,-335 548,-591 530,-631"/><path d="M680,-417C680,-415 681,-412 682,-409"/><path d="M678,-266C677,-263 676,-261 676,-258"/><path d="M676,-276C648,-318 435,-636 407,-678"/><path d="M675,-436C676,-433 677,-431 677,-428"/><path d="M673,-247C672,-245 671,-242 670,-239"/><path d="M670,-454C671,-452 672,-449 673,-446"/><path d="M669,-249C636,-220 422,-40 389,-12"/><path d="M667,-229C666,-227 665,-224 664,-222"/><path d="M664,-472C665,-470 666,-467 667,-465"/><path d="M664,-236C610,-264 128,-513 74,-541"/><path d="M661,-222C655,-262 619,-514 614,-554"/><path d="M660,-212C659,-209 657,-207 656,-204"/><path d="M66,-155C65,-157 63,-159 61,-162"/><path d="M656,-490C657,-487 659,-485 660,-482"/><path d="M651,-194C650,-192 649,-189 648,-187"/><path d="M648,-507C649,-505 650,-502 651,-500"/><path d="M648,-198C595,-188 177,-104 125,-94"/><path d="M642,-177C641,-175 640,-173 639,-171"/><path d="M639,-523C640,-521 641,-519 642,-517"/><path d="M639,-183C581,-199 69,-331 11,-346"/><path d="M633,-161C632,-159 630,-157 628,-154"/><path d="M632,-170C586,-209 171,-558 124,-597"/><path d="M628,-539C629,-537 631,-535 633,-532"/><path d="M621,-146C620,-144 618,-141 617,-139"/><path d="M620,-152C566,-180 84,-429 30,-457"/><path d="M617,-555C618,-553 620,-550 621,-548"/><path d="M61,-533C62,-535 64,-537 66,-540"/><path d="M609,-131C608,-129 606,-126 605,-124"/><path d="M608,-132C588,-116 502,-51 481,-35"/><path d="M605,-570C606,-568 608,-565 609,-563"/><path d="M600,-126C590,-179 506,-597 496,-649"/><path d="M6,-353C6,-355 7,-358 7,-360"/><path d="M597,-116C595,-114 593,-112 592,-110"/><path d="M592,-584C594,-582 596,-580 597,-578"/><path d="M584,-102C582,-100 580,-98 578,-97"/><path d="M583,-108C528,-125 71,-271 16,-288"/><path d="M578,-597C580,-595 582,-593 584,-592"/><path d="M570,-97C524,-136 109,-485 62,-524"/><path d="M570,-89C568,-88 565,-86 563,-85"/><path d="M563,-609C565,-608 568,-606 570,-605"/><path d="M561,-86C574,-127 659,-394 672,-436"/><path d="M555,-77C553,-76 550,-74 548,-73"/><path d="M55,-511C113,-495 625,-363 683,-348"/><path d="M55,-171C54,-173 53,-175 52,-177"/><path d="M548,-621C550,-620 553,-618 555,-617"/><path d="M539,-70C489,-80 113,-155 63,-165"/><path d="M539,-66C537,-65 535,-63 532,-61"/><path d="M533,-633C535,-632 537,-630 540,-628"/><path d="M528,-64C530,-118 542,-564 544,-619"/><path d="M523,-55C521,-54 519,-53 517,-52"/><path d="M52,-517C53,-519 54,-521 55,-523"/><path d="M517,-642C519,-641 521,-640 523,-639"/><path d="M510,-54C488,-111 295,-617 273,-674"/><path d="M507,-46C505,-45 502,-44 500,-43"/><path d="M500,-651C502,-650 505,-649 507,-648"/><path d="M490,-40C452,-41 226,-48 188,-49"/><path d="M490,-38C487,-37 485,-35 482,-34"/><path d="M482,-660C485,-659 487,-657 490,-656"/><path d="M472,-30C470,-29 467,-28 465,-27"/><path d="M465,-667C467,-666 470,-665 472,-664"/><path d="M463,-30C488,-67 659,-323 684,-361"/><path d="M46,-496C99,-506 517,-590 569,-600"/><path d="M46,-187C45,-189 44,-192 43,-194"/><path d="M454,-24C452,-23 449,-22 446,-21"/><path d="M447,-673C449,-672 452,-671 455,-670"/><path d="M436,-22C393,-42 88,-178 45,-197"/><path d="M436,-19C433,-18 431,-17 428,-17"/><path d="M43,-500C44,-502 45,-505 46,-507"/><path d="M428,-678C431,-677 433,-676 436,-676"/><path d="M428,-676C457,-654 612,-537 640,-515"/><path d="M421,-20C399,-77 206,-583 184,-640"/><path d="M417,-14C415,-14 412,-13 409,-12"/><path d="M410,-682C412,-682 415,-681 418,-680"/><path d="M407,-16C433,-61 640,-410 666,-455"/><path d="M398,-10C396,-10 393,-9 390,-9"/><path d="M391,-685C393,-685 396,-684 399,-684"/><path d="M38,-204C37,-207 35,-209 34,-212"/><path d="M379,-8C377,-8 374,-7 372,-7"/><path d="M372,-687C374,-687 377,-686 379,-686"/><path d="M362,-10C324,-39 57,-240 19,-268"/><path d="M360,-7C358,-7 355,-6 353,-6"/><path d="M36,-221C76,-264 417,-623 456,-665"/><path d="M353,-688C355,-688 358,-687 360,-687"/><path d="M352,-686C386,-671 563,-591 596,-576"/><path d="M342,-8C308,-23 131,-103 98,-118"/><path d="M341,-6C339,-6 336,-7 334,-7"/><path d="M34,-482C35,-485 37,-487 38,-490"/><path d="M334,-687C336,-687 339,-688 341,-688"/><path d="M332,-684C370,-655 637,-454 675,-426"/><path d="M332,-11C368,-50 645,-342 682,-381"/><path d="M322,-7C320,-7 317,-8 315,-8"/><path d="M315,-686C317,-686 320,-687 322,-687"/><path d="M312,-13C342,-64 593,-490 622,-539"/><path d="M303,-9C301,-9 298,-10 295,-10"/><path d="M30,-222C29,-224 28,-227 27,-229"/><path d="M296,-684C298,-684 301,-685 304,-685"/><path d="M287,-16C259,-58 46,-376 18,-418"/><path d="M284,-12C282,-12 279,-13 276,-14"/><path d="M28,-239C54,-284 261,-633 287,-678"/><path d="M277,-680C279,-680 282,-681 285,-682"/><path d="M27,-465C28,-467 29,-470 30,-472"/><path d="M266,-18C237,-40 82,-157 54,-179"/><path d="M266,-16C263,-17 261,-18 258,-18"/><path d="M258,-675C261,-676 263,-677 266,-677"/><path d="M258,-672C301,-652 606,-516 649,-497"/><path d="M25,-445C58,-474 272,-654 305,-682"/><path d="M247,-21C245,-22 242,-23 239,-24"/><path d="M240,-670C242,-671 245,-672 248,-673"/><path d="M24,-240C23,-242 22,-245 21,-248"/><path d="M238,-29C278,-72 619,-431 658,-473"/><path d="M229,-27C227,-28 224,-29 222,-30"/><path d="M222,-664C224,-665 227,-666 229,-667"/><path d="M220,-37C254,-88 551,-533 585,-583"/><path d="M22,-258C35,-299 120,-566 133,-608"/><path d="M212,-34C209,-35 207,-37 204,-38"/><path d="M21,-447C22,-449 23,-452 24,-455"/><path d="M204,-656C207,-657 209,-659 212,-660"/><path d="M204,-654C242,-653 468,-646 506,-645"/><path d="M198,-46C188,-99 104,-517 94,-569"/><path d="M194,-43C192,-44 189,-45 187,-46"/><path d="M19,-258C18,-261 17,-263 17,-266"/><path d="M187,-648C189,-649 192,-650 194,-651"/><path d="M177,-52C175,-53 173,-54 171,-55"/><path d="M171,-639C173,-640 175,-641 177,-642"/><path d="M164,-63C146,-103 31,-359 13,-399"/><path d="M161,-61C159,-62 157,-64 154,-66"/><path d="M16,-428C17,-431 18,-433 18,-436"/><path d="M155,-628C157,-629 159,-631 162,-633"/><path d="M155,-624C205,-614 581,-539 631,-529"/><path d="M150,-75C152,-129 164,-575 166,-630"/><path d="M146,-73C144,-74 141,-76 139,-77"/><path d="M14,-277C14,-279 13,-282 12,-285"/><path d="M139,-617C141,-618 144,-620 146,-621"/><path d="M131,-85C129,-86 126,-88 124,-89"/><path d="M13,-388C56,-417 393,-642 436,-671"/><path d="M124,-605C126,-606 129,-608 131,-609"/><path d="M12,-410C12,-412 13,-415 14,-418"/><path d="M12,-368C65,-391 501,-587 554,-611"/><path d="M12,-313C48,-352 325,-644 362,-683"/><path d="M116,-97C114,-99 112,-101 110,-102"/><path d="M111,-586C166,-569 623,-423 678,-406"/><path d="M110,-592C112,-594 114,-596 116,-597"/><path d="M109,-111C143,-162 440,-607 474,-657"/><path d="M102,-110C100,-112 98,-114 97,-116"/><path d="M10,-333C35,-370 206,-626 231,-664"/><path d="M10,-296C10,-298 9,-301 9,-304"/></g><g style="fill:blue;stroke:black;"><circle cx="93" cy="-574" r="5.4"/><circle cx="93" cy="-120" r="5.4"/><circle cx="81" cy="-559" r="5.4"/><circle cx="81" cy="-135" r="5.4"/><circle cx="8" cy="-385" r="5.4"/><circle cx="8" cy="-309" r="5.4"/><circle cx="7" cy="-366" r="5.4"/><circle cx="7" cy="-328" r="5.4"/><circle cx="69" cy="-544" r="5.4"/><circle cx="69" cy="-150" r="5.4"/><circle cx="688" cy="-347" r="5.4"/><circle cx="687" cy="-366" r="5.4"/><circle cx="687" cy="-328" r="5.4"/><circle cx="686" cy="-385" r="5.4"/><circle cx="686" cy="-309" r="5.4"/><circle cx="683" cy="-404" r="5.4"/><circle cx="683" cy="-290" r="5.4"/><circle cx="679" cy="-423" r="5.4"/><circle cx="679" cy="-271" r="5.4"/><circle cx="674" cy="-441" r="5.4"/><circle cx="674" cy="-253" r="5.4"/><circle cx="669" cy="-460" r="5.4"/><circle cx="669" cy="-234" r="5.4"/><circle cx="662" cy="-477" r="5.4"/><circle cx="662" cy="-217" r="5.4"/><circle cx="654" cy="-495" r="5.4"/><circle cx="654" cy="-199" r="5.4"/><circle cx="645" cy="-512" r="5.4"/><circle cx="645" cy="-182" r="5.4"/><circle cx="636" cy="-528" r="5.4"/><circle cx="636" cy="-166" r="5.4"/><circle cx="625" cy="-544" r="5.4"/><circle cx="625" cy="-150" r="5.4"/><circle cx="613" cy="-559" r="5.4"/><circle cx="613" cy="-135" r="5.4"/><circle cx="601" cy="-574" r="5.4"/><circle cx="601" cy="-120" r="5.4"/><circle cx="6" cy="-347" r="5.4"/><circle cx="588" cy="-588" r="5.4"/><circle cx="588" cy="-106" r="5.4"/><circle cx="58" cy="-528" r="5.4"/><circle cx="58" cy="-166" r="5.4"/><circle cx="574" cy="-93" r="5.4"/><circle cx="574" cy="-601" r="5.4"/><circle cx="559" cy="-81" r="5.4"/><circle cx="559" cy="-613" r="5.4"/><circle cx="544" cy="-69" r="5.4"/><circle cx="544" cy="-625" r="5.4"/><circle cx="528" cy="-636" r="5.4"/><circle cx="528" cy="-58" r="5.4"/><circle cx="512" cy="-645" r="5.4"/><circle cx="512" cy="-49" r="5.4"/><circle cx="495" cy="-654" r="5.4"/><circle cx="495" cy="-40" r="5.4"/><circle cx="49" cy="-512" r="5.4"/><circle cx="49" cy="-182" r="5.4"/><circle cx="477" cy="-662" r="5.4"/><circle cx="477" cy="-32" r="5.4"/><circle cx="460" cy="-669" r="5.4"/><circle cx="460" cy="-25" r="5.4"/><circle cx="441" cy="-674" r="5.4"/><circle cx="441" cy="-20" r="5.4"/><circle cx="423" cy="-679" r="5.4"/><circle cx="423" cy="-15" r="5.4"/><circle cx="404" cy="-683" r="5.4"/><circle cx="404" cy="-11" r="5.4"/><circle cx="40" cy="-495" r="5.4"/><circle cx="40" cy="-199" r="5.4"/><circle cx="385" cy="-8" r="5.4"/><circle cx="385" cy="-686" r="5.4"/><circle cx="366" cy="-7" r="5.4"/><circle cx="366" cy="-687" r="5.4"/><circle cx="347" cy="-688" r="5.4"/><circle cx="347" cy="-6" r="5.4"/><circle cx="328" cy="-7" r="5.4"/><circle cx="328" cy="-687" r="5.4"/><circle cx="32" cy="-477" r="5.4"/><circle cx="32" cy="-217" r="5.4"/><circle cx="309" cy="-8" r="5.4"/><circle cx="309" cy="-686" r="5.4"/><circle cx="290" cy="-683" r="5.4"/><circle cx="290" cy="-11" r="5.4"/><circle cx="271" cy="-679" r="5.4"/><circle cx="271" cy="-15" r="5.4"/><circle cx="253" cy="-674" r="5.4"/><circle cx="253" cy="-20" r="5.4"/><circle cx="25" cy="-460" r="5.4"/><circle cx="25" cy="-234" r="5.4"/><circle cx="234" cy="-669" r="5.4"/><circle cx="234" cy="-25" r="5.4"/><circle cx="217" cy="-662" r="5.4"/><circle cx="217" cy="-32" r="5.4"/><circle cx="20" cy="-441" r="5.4"/><circle cx="20" cy="-253" r="5.4"/><circle cx="199" cy="-654" r="5.4"/><circle cx="199" cy="-40" r="5.4"/><circle cx="182" cy="-645" r="5.4"/><circle cx="182" cy="-49" r="5.4"/><circle cx="166" cy="-636" r="5.4"/><circle cx="166" cy="-58" r="5.4"/><circle cx="150" cy="-69" r="5.4"/><circle cx="150" cy="-625" r="5.4"/><circle cx="15" cy="-423" r="5.4"/><circle cx="15" cy="-271" r="5.4"/><circle cx="135" cy="-81" r="5.4"/><circle cx="135" cy="-613" r="5.4"/><circle cx="120" cy="-93" r="5.4"/><circle cx="120" cy="-601" r="5.4"/><circle cx="11" cy="-404" r="5.4"/><circle cx="11" cy="-290" r="5.4"/><circle cx="106" cy="-588" r="5.4"/><circle cx="106" cy="-106" r="5.4"/></g></g></svg>